<?xml version="1.0" encoding="UTF-8"?>
<svg xmlns="http://www.w3.org/2000/svg" version="1.1" height="80" width="80">
 <defs>
  <linearGradient id="hicg_overlay_grad" gradientUnits="userSpaceOnUse" x1="39.9995" y1="5.1816" x2="39.9995" y2="58.8019">
   <stop offset="0" style="stop-color:#FFFFFF"/>
   <stop offset="1" style="stop-color:#000000"/>
  </linearGradient>
  <filter id="hicg_drop_shadow">
    <feOffset in="SourceAlpha" dx="0" dy="4"/>
    <feGaussianBlur stdDeviation="4"/>
	<feColorMatrix type="matrix" values="1 0 0 0 0  0 1 0 0 0  0 0 1 0 0  0 0 0 0.5 0" result="shadow"/>
    <feBlend in="SourceGraphic" in2="shadow" mode="normal"/>
  </filter>
 </defs>
 <g>
  <path id="hicg_background" fill="#e7a600" d="M79,40c0,28.893-10.105,39-39,39S1,68.893,1,40C1,11.106,11.105,1,40,1S79,11.106,79,40z"/>
  <path id="hicg_highlight" fill="#fff" opacity="0.25" d="M39.999,1C11.105,1,1,11.106,1,40c0,28.893,10.105,39,38.999,39   C68.896,79,79,68.893,79,40C79,11.106,68.896,1,39.999,1z M39.999,78.025C11.57,78.025,1.976,68.43,1.976,40   c0-28.429,9.595-38.024,38.023-38.024c28.43,0,38.024,9.596,38.024,38.024C78.023,68.43,68.429,78.025,39.999,78.025z"/>
  <path id="hicg_overlay" opacity="0.4" fill="url(#hicg_overlay_grad)" d="M78.977,40c0,28.893-10.1,39-38.977,39S1.023,68.893,1.023,40c0-28.894,10.1-39,38.977-39S78.977,11.106,78.977,40z"/>
 </g>
<g xmlns:sodipodi="http://sodipodi.sourceforge.net/DTD/sodipodi-0.dtd" xmlns:inkscape="http://www.inkscape.org/namespaces/inkscape" xmlns:rdf="http://www.w3.org/1999/02/22-rdf-syntax-ns#" xmlns:cc="http://creativecommons.org/ns#" xmlns:dc="http://purl.org/dc/elements/1.1/" transform="translate(12, 18.339622641509) scale(1.0566037735849)" filter="url(#hicg_drop_shadow)">
  <defs xmlns="http://www.w3.org/2000/svg" id="defs2991"/>
  <sodipodi:namedview xmlns:sodipodi="http://sodipodi.sourceforge.net/DTD/sodipodi-0.dtd" xmlns:inkscape="http://www.inkscape.org/namespaces/inkscape" id="base" pagecolor="#ffffff" bordercolor="#666666" borderopacity="1.0" inkscape:pageopacity="0.0" inkscape:pageshadow="2" inkscape:zoom="11.2" inkscape:cx="20.376737" inkscape:cy="22.618434" inkscape:document-units="px" inkscape:current-layer="layer1" showgrid="false" inkscape:window-width="1166" inkscape:window-height="883" inkscape:window-x="326" inkscape:window-y="42" inkscape:window-maximized="0" fit-margin-top="0" fit-margin-left="0" fit-margin-right="0" fit-margin-bottom="0"/>
  <metadata xmlns="http://www.w3.org/2000/svg" xmlns:rdf="http://www.w3.org/1999/02/22-rdf-syntax-ns#" xmlns:cc="http://creativecommons.org/ns#" xmlns:dc="http://purl.org/dc/elements/1.1/" id="metadata2994">
    <rdf:RDF>
      <cc:Work rdf:about="">
        <dc:format>image/svg+xml</dc:format>
        <dc:type rdf:resource="http://purl.org/dc/dcmitype/StillImage"/>
        <dc:title/>
      </cc:Work>
    </rdf:RDF>
  </metadata>
  <g xmlns="http://www.w3.org/2000/svg" xmlns:inkscape="http://www.inkscape.org/namespaces/inkscape" xmlns:sodipodi="http://sodipodi.sourceforge.net/DTD/sodipodi-0.dtd" inkscape:label="Layer 1" inkscape:groupmode="layer" id="layer1" transform="translate(-176.33207,-228.5844)">
    <path style="fill:#000000" d="m 194.58207,268.19561 c -1.2375,-1.19985 -2.25,-2.91239 -2.25,-3.80565 0,-0.89325 -2.925,-6.44779 -6.5,-12.3434 -5.90112,-9.73168 -7.78193,-14.46221 -5.75,-14.46213 0.4125,2e-5 1.96094,1.51769 3.44098,3.37261 2.12107,2.65831 3.23296,3.26898 5.25,2.88339 1.89177,-0.36163 2.55902,-0.0677 2.55902,1.12739 0,0.88912 0.40787,1.61658 0.90638,1.61658 0.49851,0 0.66537,0.92161 0.37081,2.04803 -0.34187,1.30732 0.28706,2.92369 1.73898,4.46918 2.56784,2.73334 4.39239,2.34541 3.41737,-0.7266 -0.42294,-1.33257 -0.27368,-1.80984 0.43001,-1.37494 1.63139,1.00826 2.48341,-3.89884 1.11946,-6.44741 -0.99522,-1.85959 -0.85151,-2.64222 0.88936,-4.84314 1.14201,-1.44381 2.96262,-4.53762 4.04578,-6.87512 1.08316,-2.3375 2.37799,-4.25 2.8774,-4.25 1.59581,0 2.33862,15.97036 0.84218,18.10682 -0.72442,1.03425 -1.61426,1.58332 -1.97743,1.22015 -0.36316,-0.36317 -0.66281,1.1022 -0.66588,3.25636 -0.003,2.15417 -0.48021,5.62588 -1.06032,7.71491 -0.90691,3.26585 -1.36167,3.70724 -3.24442,3.14903 -1.20433,-0.35707 -2.75218,-1.36479 -3.43968,-2.23937 -0.6875,-0.87459 -1.25,-1.22405 -1.25,-0.77658 0,0.44746 -0.62245,0.29698 -1.38322,-0.3344 -1.86853,-1.55075 -3.00427,1.31053 -1.57801,3.97552 1.2879,2.40646 2.10687,2.51983 1.28267,0.17756 -0.51601,-1.46643 -0.3894,-1.53654 0.78138,-0.43268 1.19085,1.12279 1.12656,1.51717 -0.4354,2.67062 -1.76033,1.29996 -1.75047,1.39724 0.25,2.46787 1.14542,0.61301 2.08258,0.72373 2.08258,0.24604 0,-1.38982 2.86296,-1.00135 3.42558,0.46482 0.69585,1.81335 2.57442,1.69174 2.57442,-0.16667 0,-0.825 -0.47656,-1.5 -1.05902,-1.5 -0.58246,0 -0.75121,-0.49804 -0.375,-1.10676 0.47683,-0.77153 0.94441,-0.69581 1.54371,0.25 0.83979,1.32537 0.9857,1.1675 1.28775,-1.39324 0.0811,-0.6875 0.97,-1.1074 1.97535,-0.93312 1.02128,0.17705 1.55579,-0.12343 1.21125,-0.6809 -0.33917,-0.54878 -0.0898,-1.32341 0.55416,-1.72139 0.73122,-0.45192 0.90292,-0.29014 0.45729,0.4309 -0.39244,0.63498 -0.26352,1.15451 0.28648,1.15451 2.54767,0 1.93085,-2.17525 -0.9617,-3.39148 l -3.22079,-1.35424 3.54713,-1.17065 c 2.90558,-0.95893 3.66323,-1.78948 4.18899,-4.59207 0.35303,-1.88177 1.05374,-3.67595 1.55714,-3.98707 1.53198,-0.94682 6.00726,0.62056 6.00726,2.10392 0,1.78818 1.12544,1.76395 3.55887,-0.0766 1.06762,-0.80751 2.72863,-1.48251 3.69113,-1.5 4.323,-0.0786 0.84149,3.56499 -10.2464,10.72333 -6.59802,4.25967 -12.23657,8.4795 -12.53011,9.3774 -0.82261,2.51628 -7.43854,2.17892 -10.22349,-0.52132 z m 21.19284,-9.70999 c 1.95644,-1.15432 3.55716,-2.43598 3.55716,-2.84812 0,-0.41214 1.80459,-1.56311 4.01019,-2.5577 2.20561,-0.99459 3.83049,-1.98806 3.61084,-2.2077 -0.21965,-0.21965 -2.58674,0.64835 -5.2602,1.9289 -2.67346,1.28055 -6.76472,2.94986 -9.0917,3.70958 -3.79825,1.24007 -4.05388,1.51572 -2.5,2.69576 2.16464,1.64387 1.52924,1.72458 5.67371,-0.72072 z m -23.94284,0.0988 c -0.33992,-0.55 -0.1556,-1 0.4096,-1 0.5652,0 0.74045,-0.7875 0.38945,-1.75 -0.55675,-1.5267 -0.33777,-1.4948 1.71615,0.25 2.07346,1.76141 2.02077,1.55381 -0.4417,-1.74026 -1.53781,-2.05714 -3.26548,-3.45011 -3.83927,-3.09549 -0.57378,0.35462 -0.79197,0.23774 -0.48485,-0.25974 0.30712,-0.49748 -1.48856,-2.92951 -3.9904,-5.40451 -3.47759,-3.44027 -4.08481,-3.79352 -2.57849,-1.5 1.08368,1.65 2.55748,4.47216 3.27512,6.27146 0.71764,1.7993 1.76574,3.55633 2.32911,3.9045 0.6313,0.39017 0.7139,0.13082 0.21528,-0.67596 -0.53935,-0.87268 -0.41874,-1.06781 0.3618,-0.58541 0.64395,0.39798 0.91767,1.13321 0.60827,1.63384 -0.56955,0.92154 1.15926,4.95157 2.12413,4.95157 0.28811,0 0.24572,-0.45 -0.0942,-1 z m 10.875,-2.125 c 0.34375,-1.71875 0.60395,-4.53125 0.57823,-6.25 -0.0433,-2.89426 -0.19134,-2.75582 -2.00465,1.875 -1.90712,4.87038 -1.94392,7.5 -0.10497,7.5 0.49852,0 1.18764,-1.40625 1.53139,-3.125 z m 13.92481,-7.08146 c 0.92907,-0.59057 0.92577,-0.76637 -0.0146,-0.77823 -1.35399,-0.0171 -3.3197,3.13666 -3.22179,5.16895 0.0349,0.72366 0.50727,0.20344 1.04981,-1.15603 0.54253,-1.35947 1.52651,-2.81508 2.18661,-3.23469 z m 3.06182,1.70646 c -0.31659,-0.825 -0.75246,-1.5 -0.96862,-1.5 -0.21616,0 -0.39301,0.675 -0.39301,1.5 0,0.825 0.43588,1.5 0.96861,1.5 0.53274,0 0.7096,-0.675 0.39302,-1.5 z m -11.56337,-8.91249 c -0.18741,-1.31169 -0.92062,-1.98474 -1.97285,-1.81099 -2.79238,0.4611 -3.32759,-1.95146 -0.87374,-3.93847 1.35314,-1.0957 1.72031,-1.83305 0.90911,-1.82567 -1.804,0.0164 -6.07041,6.6852 -5.63833,8.81324 0.20171,0.99346 1.24228,1.64209 2.55876,1.59498 1.22033,-0.0437 2.21879,0.34893 2.21879,0.87244 0,0.52352 0.69672,0.37363 1.54826,-0.33309 0.85154,-0.70672 1.41404,-2.22432 1.25,-3.37244 z m -31.79826,24.95733 c 0,-0.77161 2.97626,-1.39226 3.3987,-0.70875 0.25451,0.41181 -0.40608,0.81419 -1.46798,0.89418 -1.0619,0.08 -1.93072,-0.003 -1.93072,-0.18543 z m 15.59455,-23.15904 c -0.42544,-1.10869 -1.42219,-1.46074 -3.18281,-1.12418 -1.71337,0.32753 -2.23092,0.15756 -1.56078,-0.51258 1.39796,-1.39796 6.14904,-0.0303 6.14904,1.77001 0,1.94324 -0.6316,1.88336 -1.40545,-0.13325 z" id="path2987" inkscape:connector-curvature="0"/>
    <path style="opacity:0.74390246999999998;fill:#0000f3;fill-opacity:1;stroke:#000000;stroke-width:0.10101525000000000;stroke-miterlimit:4;stroke-opacity:1;stroke-dasharray:none" d="m 200.24991,258.81446 c -0.62285,-1.16381 0.25798,-4.90745 2.01029,-8.54395 l 0.79098,-1.6415 -0.12061,3.40927 c -0.12429,3.51339 -0.37521,5.05265 -1.05834,6.49223 -0.45839,0.96599 -1.18887,1.09384 -1.62232,0.28395 z" id="path3026" inkscape:connector-curvature="0"/>
    <path style="opacity:0.74390246999999998;fill:#e7a700;fill-opacity:1;stroke:#000000;stroke-width:0.10101525000000000;stroke-miterlimit:4;stroke-opacity:1;stroke-dasharray:none" d="m 210.81092,259.52159 c -2.05985,-1.41892 -2.01129,-1.47479 2.81444,-3.2384 1.53142,-0.55967 4.8626,-1.92226 7.40262,-3.02797 2.54002,-1.10571 4.75605,-1.96268 4.9245,-1.90438 0.16845,0.0583 -0.99883,0.76252 -2.59395,1.56492 -1.92874,0.97023 -3.27732,1.84144 -4.026,2.60086 -1.12885,1.14504 -4.27716,3.31833 -6.24877,4.31354 l -1.05316,0.53161 -1.21968,-0.84018 0,0 z" id="path3796" inkscape:connector-curvature="0"/>
    <path style="opacity:0.74390247;fill:#806600;fill-opacity:1;stroke:#000000;stroke-width:0.10101525;stroke-miterlimit:4;stroke-opacity:1;stroke-dasharray:none" d="" id="path3798" inkscape:connector-curvature="0"/>
    <path style="opacity:0.74390246999999998;fill:#e7a700;fill-opacity:1;stroke:#000000;stroke-width:0.10101525000000000;stroke-miterlimit:4;stroke-opacity:1;stroke-dasharray:none" d="m 191.05158,258.51342 c -0.84795,-1.372 -1.30737,-2.94015 -1.13328,-3.86817 0.1681,-0.89603 -0.10531,-1.41928 -0.98863,-1.89202 -0.46228,-0.24741 -0.48771,-0.20589 -0.3366,0.54966 0.3139,1.56946 -0.57009,0.29124 -2.34911,-3.39675 -0.94185,-1.95248 -2.0738,-4.16036 -2.51546,-4.9064 -0.44166,-0.74603 -0.7544,-1.40504 -0.69498,-1.46446 0.19168,-0.19168 4.16573,3.89835 5.34716,5.50321 0.81934,1.11299 1.09949,1.69981 0.98448,2.06217 -0.13681,0.43106 -0.0738,0.48374 0.42338,0.35373 0.86494,-0.22619 2.06554,0.63346 3.6863,2.63944 1.53667,1.90191 1.63734,2.51762 0.20619,1.26105 -0.49564,-0.43517 -1.01184,-0.79122 -1.14711,-0.79122 -0.14897,0 -0.18284,0.53706 -0.0859,1.36191 0.14557,1.2386 0.11147,1.37734 -0.3766,1.53225 -0.58746,0.18645 -0.67956,0.66012 -0.27525,1.41559 0.45585,0.85175 -0.18812,0.54042 -0.7446,-0.35999 l 0,0 z" id="path3802" inkscape:connector-curvature="0"/>
    <path style="opacity:0.74390246999999998;fill:#e7a700;fill-opacity:1;stroke:#000000;stroke-width:0.02525381000000000;stroke-miterlimit:4;stroke-opacity:1;stroke-dasharray:none" d="m 201.77412,269.39506 c -0.34399,-0.15666 -0.65954,-0.52427 -0.98192,-1.14394 -0.45219,-0.86915 -1.09635,-1.2569 -2.17931,-1.31182 -0.4969,-0.0252 -0.60793,-0.0111 -0.83869,0.10665 -0.26144,0.13338 -0.35821,0.2768 -0.49227,0.72958 -0.1268,0.42827 -0.78858,0.33502 -2.01067,-0.28334 -0.82923,-0.41958 -1.29738,-0.73325 -1.45626,-0.97573 -0.0967,-0.14761 -0.0949,-0.17 0.031,-0.37368 0.12644,-0.20457 0.58715,-0.60774 1.29897,-1.13673 0.17362,-0.12902 0.4745,-0.38927 0.66861,-0.57834 0.75829,-0.73858 0.62433,-1.19238 -0.692,-2.34424 -0.85013,-0.7439 -0.93234,-0.62908 -0.51164,0.71459 0.13978,0.44644 0.27175,1.00348 0.29326,1.23787 0.0361,0.39326 0.0297,0.42616 -0.0835,0.42616 -0.43498,0 -1.63852,-1.99735 -1.92115,-3.18829 -0.20156,-0.8493 -0.15477,-1.70109 0.12461,-2.26858 0.32525,-0.66069 0.79867,-0.86964 1.37622,-0.60743 0.14551,0.0661 0.41606,0.23203 0.60124,0.36883 0.4574,0.3379 0.8267,0.51844 1.06051,0.51844 0.16334,0 0.21019,-0.036 0.28747,-0.22097 0.0508,-0.12154 0.117,-0.22097 0.14717,-0.22097 0.10967,0 0.63718,0.48557 1.07904,0.99327 1.40922,1.61917 4.08174,2.80507 5.15287,2.28654 0.30677,-0.1485 0.49421,-0.37239 0.7712,-0.92118 0.21392,-0.42381 0.60589,-1.57049 0.83182,-2.43342 l 0.14356,-0.54829 0.60709,-0.0223 0.60709,-0.0223 1.29426,0.53114 c 2.02467,0.83088 2.61227,1.16366 3.23924,1.83447 0.72602,0.77678 0.72801,1.45863 0.005,1.81221 -0.43133,0.21104 -1.14218,0.24437 -1.34337,0.063 -0.19508,-0.17586 -0.16835,-0.47643 0.0876,-0.98459 0.27228,-0.54068 0.28431,-0.69448 0.0543,-0.69448 -0.18813,0 -0.75286,0.32122 -0.92662,0.52707 -0.35638,0.42218 -0.44297,0.95448 -0.23118,1.42121 0.16292,0.35905 0.15821,0.41507 -0.0487,0.58022 -0.16489,0.13159 -0.21391,0.13657 -0.97513,0.0992 -0.48943,-0.024 -0.92453,-0.013 -1.11744,0.0284 -0.36578,0.0784 -0.78271,0.35732 -0.91412,0.61142 -0.0502,0.097 -0.14998,0.57838 -0.22177,1.06961 -0.13372,0.91496 -0.27813,1.40808 -0.41235,1.40808 -0.1288,0 -0.26309,-0.13995 -0.60578,-0.63134 -0.62042,-0.88965 -0.84134,-1.03944 -1.24335,-0.84305 -0.30931,0.1511 -0.64989,0.70048 -0.64989,1.04831 0,0.31499 0.22241,0.55225 0.51799,0.55259 0.21273,2.5e-4 0.58149,0.18716 0.73149,0.37078 0.47032,0.57575 0.46747,1.7002 -0.006,2.20685 -0.31673,0.33923 -0.7068,0.41001 -1.14919,0.20853 l 0,0 z" id="path3806" inkscape:connector-curvature="0"/>
    <path sodipodi:type="arc" style="opacity:0.74390246999999998;fill:#cccccc;fill-opacity:1;stroke:#000000;stroke-width:0.40000001000000002;stroke-miterlimit:4;stroke-opacity:1;stroke-dasharray:none" id="path3808" sodipodi:cx="29.736366" sodipodi:cy="10.589699" sodipodi:rx="1.3258252" sodipodi:ry="1.3258252" d="m 31.062191,10.589699 a 1.3258252,1.3258252 0 1 1 -2.65165,0 1.3258252,1.3258252 0 1 1 2.65165,0 z" transform="translate(175.95326,228.07932)"/>
    <path style="opacity:0.74390247;fill:#0000f3;fill-opacity:1;stroke:#000000;stroke-width:0.01785714;stroke-miterlimit:4;stroke-opacity:1;stroke-dasharray:none" d="m 27.178642,9.6787062 c -0.09767,-0.035169 -0.333723,-0.075983 -0.524553,-0.090699 -0.19083,-0.014716 -0.346964,-0.03473 -0.346964,-0.044477 0,-0.00975 0.104239,-0.1725053 0.231642,-0.3616867 1.209258,-1.7956326 2.494208,-3.0403838 3.223419,-3.1225764 0.853572,-0.09621 0.590499,0.5350626 -0.680366,1.6326139 -0.869776,0.7511609 -1.185199,1.1269049 -1.486508,1.7707878 -0.07474,0.159713 -0.159107,0.2880455 -0.187484,0.2851835 -0.02838,-0.00286 -0.131511,-0.033978 -0.229186,-0.069147 l 0,0 z" id="path3832" inkscape:connector-curvature="0" transform="translate(176.33207,228.5844)"/>
  </g>
  <g xmlns="http://www.w3.org/2000/svg" xmlns:inkscape="http://www.inkscape.org/namespaces/inkscape" inkscape:groupmode="layer" id="layer2" inkscape:label="Layer" transform="translate(-176.33207,-228.5844)">
    <path style="fill:none;stroke:#000000;stroke-width:0.85511053px;stroke-linecap:butt;stroke-linejoin:miter;stroke-opacity:1" d="m 201.39356,239.0674 c 0,0 1.38625,-1.09751 2.8681,0.0915" id="path3828" inkscape:connector-curvature="0"/>
    <path style="opacity:0.74390246999999998;fill:#800000;fill-opacity:1;stroke:#000000;stroke-width:0.01785714000000000;stroke-miterlimit:4;stroke-opacity:1;stroke-dasharray:none" d="m 29.130108,17.524193 c -0.04297,-0.02503 -0.07824,-0.06962 -0.07837,-0.09909 -6.92e-4,-0.148564 -0.103553,-0.390747 -0.212038,-0.499232 -0.330729,-0.33073 -0.817868,-0.463997 -1.885928,-0.515935 -0.472776,-0.02299 -0.940417,-0.07011 -1.09375,-0.110208 -0.684107,-0.178896 -1.20629,-0.566888 -1.460977,-1.085533 -0.139444,-0.283966 -0.145975,-0.320245 -0.142013,-0.788915 0.0045,-0.531172 0.08153,-0.898846 0.331103,-1.580276 0.180269,-0.492196 0.557134,-1.322868 0.813754,-1.793642 0.19073,-0.3499 0.220611,-0.382363 0.421003,-0.45739 0.330628,-0.123787 0.751842,-0.145355 1.066247,-0.0546 0.355047,0.102489 0.543186,0.223706 0.57701,0.371766 0.07673,0.33586 0.474401,0.686277 0.952201,0.839046 0.262421,0.08391 0.589494,0.09702 1.593458,0.0639 0.426741,-0.01408 0.518673,-0.0038 0.701772,0.07872 1.007279,0.453776 1.373701,2.080061 0.800985,3.554989 -0.228111,0.587456 -0.441458,0.916386 -0.873156,1.346192 -0.583867,0.58131 -1.230517,0.89375 -1.511297,0.73021 l 0,0 z" id="path3830" inkscape:connector-curvature="0" transform="translate(176.33207,228.5844)"/>
  </g>
</g></svg>
